<mxfile>
    <diagram id="ImUD28rz3EY7YFoqBzIZ" name="第 1 页">
        <mxGraphModel dx="1032" dy="790" grid="1" gridSize="10" guides="1" tooltips="1" connect="1" arrows="1" fold="1" page="1" pageScale="1" pageWidth="1000" pageHeight="800" background="#9EBBFF" math="0" shadow="1">
            <root>
                <mxCell id="0"/>
                <mxCell id="1" parent="0"/>
                <mxCell id="45" value="Adoption.Infrastruct.Data.DbMigrations" style="whiteSpace=wrap;html=1;strokeWidth=3;fillWeight=4;hachureGap=8;hachureAngle=45;shadow=1;glass=0;fillStyle=auto;strokeColor=#82b366;gradientColor=#ffffff;fontColor=#000000;sketch=1;rounded=1;fillColor=#FFE8A8;" vertex="1" parent="1">
                    <mxGeometry x="384" y="590" width="240" height="80" as="geometry"/>
                </mxCell>
                <mxCell id="46" value="Adoption.Application" style="whiteSpace=wrap;html=1;strokeWidth=3;fillWeight=4;hachureGap=8;hachureAngle=45;shadow=1;glass=0;fillStyle=auto;strokeColor=#82b366;gradientColor=#ffffff;fontColor=#000000;sketch=1;rounded=1;fillColor=#FFE8A8;" vertex="1" parent="1">
                    <mxGeometry x="645" y="90" width="240" height="80" as="geometry"/>
                </mxCell>
                <mxCell id="47" value="Adoption.Application.Contracts" style="whiteSpace=wrap;html=1;strokeWidth=3;fillWeight=4;hachureGap=8;hachureAngle=45;shadow=1;glass=0;fillStyle=auto;strokeColor=#82b366;gradientColor=#ffffff;fontColor=#000000;sketch=1;rounded=1;fillColor=#FFE8A8;" vertex="1" parent="1">
                    <mxGeometry x="265" y="210" width="240" height="80" as="geometry"/>
                </mxCell>
                <mxCell id="48" value="Adoption.DbMigrator" style="whiteSpace=wrap;html=1;strokeWidth=3;fillWeight=4;hachureGap=8;hachureAngle=45;shadow=1;glass=0;fillStyle=auto;strokeColor=#82b366;gradientColor=#ffffff;fontColor=#000000;sketch=1;rounded=1;fillColor=#FFE8A8;" vertex="1" parent="1">
                    <mxGeometry x="645" y="490" width="240" height="80" as="geometry"/>
                </mxCell>
                <mxCell id="49" value="Adoption.Domain" style="whiteSpace=wrap;html=1;strokeWidth=3;fillWeight=4;hachureGap=8;hachureAngle=45;shadow=1;glass=0;fillStyle=auto;strokeColor=#82b366;gradientColor=#ffffff;fontColor=#000000;sketch=1;rounded=1;fillColor=#FFE8A8;" vertex="1" parent="1">
                    <mxGeometry x="645" y="340" width="240" height="80" as="geometry"/>
                </mxCell>
                <mxCell id="50" value="Adoption.Domain.Shared" style="whiteSpace=wrap;html=1;strokeWidth=3;fillWeight=4;hachureGap=8;hachureAngle=45;shadow=1;glass=0;fillStyle=auto;strokeColor=#82b366;gradientColor=#ffffff;fontColor=#000000;sketch=1;rounded=1;fillColor=#FFE8A8;" vertex="1" parent="1">
                    <mxGeometry x="265" y="340" width="240" height="80" as="geometry"/>
                </mxCell>
                <mxCell id="51" value="Adoption.Host" style="whiteSpace=wrap;html=1;strokeWidth=3;fillWeight=4;hachureGap=8;hachureAngle=45;shadow=1;glass=0;fillStyle=auto;strokeColor=#82b366;gradientColor=#ffffff;fontColor=#000000;sketch=1;rounded=1;fillColor=#FFE8A8;" vertex="1" parent="1">
                    <mxGeometry x="115" y="90" width="240" height="80" as="geometry"/>
                </mxCell>
                <mxCell id="52" value="Adoption.Infrastruct.Data" style="whiteSpace=wrap;html=1;strokeWidth=3;fillWeight=4;hachureGap=8;hachureAngle=45;shadow=1;glass=0;fillStyle=auto;strokeColor=#82b366;gradientColor=#ffffff;fontColor=#000000;sketch=1;rounded=1;fillColor=#FFE8A8;" vertex="1" parent="1">
                    <mxGeometry x="115" y="490" width="240" height="80" as="geometry"/>
                </mxCell>
                <mxCell id="53" value="" style="endArrow=classic;html=1;fontColor=#000000;exitX=0.5;exitY=1;exitDx=0;exitDy=0;entryX=0;entryY=0.5;entryDx=0;entryDy=0;edgeStyle=orthogonalEdgeStyle;sketch=1;" edge="1" parent="1" source="52" target="45">
                    <mxGeometry width="50" height="50" relative="1" as="geometry">
                        <mxPoint x="635" y="230" as="sourcePoint"/>
                        <mxPoint x="685" y="180" as="targetPoint"/>
                    </mxGeometry>
                </mxCell>
                <mxCell id="61" value="" style="edgeStyle=orthogonalEdgeStyle;elbow=horizontal;endArrow=classic;html=1;fontColor=#000000;exitX=0.5;exitY=1;exitDx=0;exitDy=0;entryX=1;entryY=0.5;entryDx=0;entryDy=0;sketch=1;" edge="1" parent="1" source="48" target="45">
                    <mxGeometry width="50" height="50" relative="1" as="geometry">
                        <mxPoint x="825" y="490" as="sourcePoint"/>
                        <mxPoint x="875" y="440" as="targetPoint"/>
                    </mxGeometry>
                </mxCell>
                <mxCell id="63" value="" style="edgeStyle=orthogonalEdgeStyle;elbow=horizontal;endArrow=classic;html=1;fontColor=#000000;entryX=1;entryY=0.5;entryDx=0;entryDy=0;exitX=0.25;exitY=1;exitDx=0;exitDy=0;sketch=1;" edge="1" parent="1" source="46" target="47">
                    <mxGeometry width="50" height="50" relative="1" as="geometry">
                        <mxPoint x="595" y="209" as="sourcePoint"/>
                        <mxPoint x="350" y="208.95999999999998" as="targetPoint"/>
                    </mxGeometry>
                </mxCell>
                <mxCell id="65" value="" style="edgeStyle=orthogonalEdgeStyle;elbow=horizontal;endArrow=classic;html=1;fontColor=#000000;entryX=0.5;entryY=0;entryDx=0;entryDy=0;exitX=0.5;exitY=1;exitDx=0;exitDy=0;sketch=1;" edge="1" parent="1" source="46" target="49">
                    <mxGeometry width="50" height="50" relative="1" as="geometry">
                        <mxPoint x="505" y="300" as="sourcePoint"/>
                        <mxPoint x="355" y="300" as="targetPoint"/>
                    </mxGeometry>
                </mxCell>
                <mxCell id="67" value="" style="edgeStyle=orthogonalEdgeStyle;endArrow=classic;html=1;fontColor=#000000;exitX=0.5;exitY=1;exitDx=0;exitDy=0;entryX=0.5;entryY=0;entryDx=0;entryDy=0;sketch=1;" edge="1" parent="1" source="47" target="50">
                    <mxGeometry width="50" height="50" relative="1" as="geometry">
                        <mxPoint x="405" y="300" as="sourcePoint"/>
                        <mxPoint x="455" y="250" as="targetPoint"/>
                    </mxGeometry>
                </mxCell>
                <mxCell id="68" value="" style="edgeStyle=orthogonalEdgeStyle;endArrow=classic;html=1;fontColor=#000000;exitX=0;exitY=0.5;exitDx=0;exitDy=0;entryX=1;entryY=0.5;entryDx=0;entryDy=0;sketch=1;" edge="1" parent="1" source="49" target="50">
                    <mxGeometry width="50" height="50" relative="1" as="geometry">
                        <mxPoint x="305" y="390" as="sourcePoint"/>
                        <mxPoint x="701" y="480" as="targetPoint"/>
                    </mxGeometry>
                </mxCell>
                <mxCell id="70" value="" style="edgeStyle=orthogonalEdgeStyle;endArrow=classic;html=1;fontColor=#000000;exitX=0.25;exitY=1;exitDx=0;exitDy=0;entryX=0.25;entryY=0;entryDx=0;entryDy=0;sketch=1;dashed=1;" edge="1" parent="1" source="51" target="52">
                    <mxGeometry width="50" height="50" relative="1" as="geometry">
                        <mxPoint x="425" y="480" as="sourcePoint"/>
                        <mxPoint x="575" y="480" as="targetPoint"/>
                        <Array as="points">
                            <mxPoint x="175" y="480"/>
                            <mxPoint x="175" y="480"/>
                        </Array>
                    </mxGeometry>
                </mxCell>
                <mxCell id="71" value="" style="edgeStyle=orthogonalEdgeStyle;endArrow=classic;html=1;fontColor=#000000;exitX=1;exitY=0.5;exitDx=0;exitDy=0;entryX=0;entryY=0.5;entryDx=0;entryDy=0;sketch=1;" edge="1" parent="1" source="51" target="46">
                    <mxGeometry width="50" height="50" relative="1" as="geometry">
                        <mxPoint x="475" y="140" as="sourcePoint"/>
                        <mxPoint x="625" y="140" as="targetPoint"/>
                    </mxGeometry>
                </mxCell>
                <mxCell id="72" value="" style="edgeStyle=orthogonalEdgeStyle;endArrow=classic;html=1;fontColor=#000000;exitX=0.5;exitY=0;exitDx=0;exitDy=0;entryX=0.5;entryY=1;entryDx=0;entryDy=0;sketch=1;" edge="1" parent="1" source="52" target="49">
                    <mxGeometry width="50" height="50" relative="1" as="geometry">
                        <mxPoint x="415" y="350" as="sourcePoint"/>
                        <mxPoint x="295" y="390" as="targetPoint"/>
                    </mxGeometry>
                </mxCell>
                <mxCell id="73" value="" style="edgeStyle=orthogonalEdgeStyle;endArrow=classic;html=1;fontColor=#000000;exitX=0.5;exitY=1;exitDx=0;exitDy=0;entryX=0;entryY=0.5;entryDx=0;entryDy=0;dashed=1;sketch=1;" edge="1" parent="1" source="51" target="50">
                    <mxGeometry width="50" height="50" relative="1" as="geometry">
                        <mxPoint x="365" y="140" as="sourcePoint"/>
                        <mxPoint x="655" y="140" as="targetPoint"/>
                    </mxGeometry>
                </mxCell>
                <mxCell id="74" value="Only in Dev" style="edgeLabel;html=1;align=center;verticalAlign=middle;resizable=0;points=[];fontColor=#000000;labelBackgroundColor=none;" vertex="1" connectable="0" parent="73">
                    <mxGeometry x="0.0417" y="1" relative="1" as="geometry">
                        <mxPoint as="offset"/>
                    </mxGeometry>
                </mxCell>
            </root>
        </mxGraphModel>
    </diagram>
</mxfile>